<svg xmlns="http://www.w3.org/2000/svg" xmlns:xlink="http://www.w3.org/1999/xlink" width="500" zoomAndPan="magnify" viewBox="0 0 375 374.999991" height="500" preserveAspectRatio="xMidYMid meet" version="1.0"><path fill="#d9d9d9" d="M 394.066406 328.789062 C 394.078125 332.347656 394.648438 335.914062 395.773438 339.332031 C 397.363281 344.148438 400.085938 348.683594 403.921875 352.535156 C 407.769531 356.382812 412.300781 359.101562 417.109375 360.695312 C 420.53125 361.828125 424.082031 362.394531 427.640625 362.40625 C 427.628906 358.839844 427.066406 355.277344 425.9375 351.859375 C 424.34375 347.042969 421.628906 342.503906 417.785156 338.65625 C 413.941406 334.804688 409.414062 332.085938 404.597656 330.492188 C 401.183594 329.363281 397.625 328.789062 394.066406 328.789062 Z M 295.328125 315.539062 C 295.277344 310.460938 296.054688 305.382812 297.664062 300.515625 C 299.871094 293.84375 303.613281 287.578125 308.894531 282.289062 C 314.179688 276.996094 320.441406 273.246094 327.105469 271.039062 C 333.992188 268.757812 341.320312 268.140625 348.457031 269.195312 L 353.132812 269.882812 L 353.820312 274.570312 C 354.871094 281.710938 354.257812 289.046875 351.980469 295.949219 C 349.773438 302.621094 346.03125 308.882812 340.75 314.175781 C 340.28125 314.644531 339.804688 315.09375 339.328125 315.539062 L 443.277344 315.539062 L 443.277344 328.273438 L 425.351562 328.273438 C 425.839844 328.722656 426.3125 329.179688 426.78125 329.648438 C 432.0625 334.9375 435.804688 341.203125 438.011719 347.882812 C 440.292969 354.777344 440.90625 362.121094 439.855469 369.253906 L 439.164062 373.941406 L 434.488281 374.628906 C 427.351562 375.683594 420.027344 375.066406 413.132812 372.785156 C 406.476562 370.585938 400.21875 366.832031 394.933594 361.542969 C 389.644531 356.25 385.902344 349.980469 383.695312 343.3125 C 382.09375 338.441406 381.308594 333.359375 381.363281 328.273438 L -6.761719 328.273438 L -6.761719 315.539062 Z M 309.742188 304.5 C 308.609375 307.917969 308.046875 311.476562 308.035156 315.039062 C 311.59375 315.035156 315.152344 314.460938 318.566406 313.332031 C 323.375 311.742188 327.90625 309.019531 331.753906 305.167969 C 335.597656 301.324219 338.3125 296.789062 339.902344 291.964844 C 341.035156 288.546875 341.597656 284.988281 341.609375 281.425781 C 338.050781 281.429688 334.492188 282.003906 331.078125 283.132812 C 326.269531 284.722656 321.738281 287.445312 317.890625 291.296875 C 314.046875 295.140625 311.332031 299.675781 309.742188 304.5 " fill-opacity="1" fill-rule="nonzero"/><path fill="#d9d9d9" d="M 288.371094 117.289062 L 340.699219 97.328125 L 255.585938 27.191406 L 255.519531 69.3125 L 255.511719 75.089844 L 249.789062 75.675781 C 245.070312 76.15625 240.914062 77.160156 237.296875 78.59375 C 229.789062 81.5625 224.691406 86.476562 221.691406 92.511719 C 218.558594 98.8125 217.566406 106.429688 218.386719 114.476562 C 218.96875 120.1875 220.484375 126.144531 222.804688 132.023438 C 231.179688 153.230469 233.480469 171.378906 231.355469 186.632812 C 228.796875 204.953125 219.9375 218.964844 207.484375 229.011719 C 195.3125 238.832031 179.75 244.75 163.425781 247.117188 C 143.058594 250.066406 121.34375 247.488281 103.535156 240.039062 L 103.789062 239.417969 C 94.417969 246.886719 84.535156 254.160156 74.429688 260.972656 C 60.335938 270.488281 45.757812 279.164062 31.503906 286.308594 C 33.324219 286.671875 35.152344 286.976562 36.992188 287.222656 C 44.300781 288.175781 51.820312 288.097656 59.1875 286.273438 C 67.636719 284.1875 79.195312 279.734375 91.15625 274.375 C 104.882812 268.234375 119.101562 260.90625 129.804688 254.59375 L 132.144531 253.210938 L 134.761719 253.941406 C 163.660156 262.003906 208.097656 266.070312 245.296875 257.011719 C 271.691406 250.582031 294.277344 237.519531 304.25 214.46875 C 306.246094 209.847656 307.796875 204.867188 308.8125 199.550781 C 309.8125 194.371094 310.300781 188.945312 310.21875 183.300781 C 310.109375 175.320312 309.089844 166.820312 308.089844 158.515625 C 307.050781 149.820312 306.027344 141.328125 306.027344 133.191406 C 306.027344 130.296875 306.449219 127.050781 307.238281 123.808594 L 292.925781 129.269531 Z M 235.894531 271.980469 L 270.652344 315.636719 L 260.644531 323.609375 L 221.066406 273.902344 C 212.179688 274.734375 203.195312 275.03125 194.347656 274.894531 L 190.082031 285.007812 L 205.433594 316.96875 L 193.921875 322.484375 L 177.328125 287.933594 L 176.089844 285.347656 L 177.207031 282.695312 L 180.730469 274.332031 C 163.519531 273.191406 147.320312 270.496094 133.976562 266.980469 C 123.28125 273.148438 109.632812 280.113281 96.359375 286.058594 C 83.746094 291.710938 71.433594 296.433594 62.242188 298.703125 C 43.65625 303.296875 11.453125 297.792969 -3.375 286.742188 C 22.964844 277.636719 44.050781 266.027344 67.273438 250.347656 C 87.316406 236.816406 106.417969 221.53125 122.121094 206.613281 C 127.976562 201.042969 133.589844 195.585938 139.117188 190.203125 C 162.320312 167.621094 184.191406 146.328125 209.027344 131.53125 C 207.34375 126.296875 206.203125 120.996094 205.667969 115.78125 C 204.613281 105.367188 205.984375 95.332031 210.222656 86.800781 C 214.601562 78 221.910156 70.890625 232.589844 66.664062 C 235.6875 65.441406 239.070312 64.464844 242.761719 63.765625 L 242.835938 13.671875 L 242.855469 0.152344 L 253.269531 8.734375 L 357.3125 94.457031 L 365.816406 101.460938 L 355.539062 105.386719 L 323.578125 117.578125 C 322.363281 119.320312 321.324219 121.527344 320.523438 123.886719 C 319.441406 127.0625 318.84375 130.394531 318.84375 133.191406 C 318.84375 140.667969 319.8125 148.742188 320.808594 157.007812 C 321.820312 165.460938 322.859375 174.109375 322.988281 183.148438 C 323.078125 189.746094 322.519531 196.023438 321.378906 201.953125 C 320.195312 208.113281 318.367188 213.984375 315.960938 219.535156 C 304.128906 246.875 278.296875 262.140625 248.296875 269.445312 C 244.230469 270.429688 240.089844 271.273438 235.894531 271.980469 Z M 114.621094 230.515625 C 129.082031 235.292969 145.785156 236.734375 161.621094 234.4375 C 175.789062 232.386719 189.179688 227.34375 199.472656 219.039062 C 209.496094 210.953125 216.632812 199.660156 218.691406 184.882812 C 220.289062 173.40625 218.878906 159.769531 213.484375 143.816406 C 190.695312 157.847656 169.964844 178.015625 148.027344 199.375 C 142.390625 204.867188 136.667969 210.429688 130.929688 215.886719 C 125.808594 220.753906 120.339844 225.65625 114.621094 230.515625 " fill-opacity="1" fill-rule="nonzero"/></svg>