<svg xmlns="http://www.w3.org/2000/svg" xmlns:xlink="http://www.w3.org/1999/xlink" width="500" zoomAndPan="magnify" viewBox="0 0 375 374.999991" height="500" preserveAspectRatio="xMidYMid meet" version="1.0"><defs><clipPath id="f2eefc59ae"><path d="M 42.953125 263 L 357.953125 263 L 357.953125 337.226562 L 42.953125 337.226562 Z M 42.953125 263 " clip-rule="nonzero"/></clipPath><clipPath id="064f427e16"><path d="M 45 75.476562 L 304 75.476562 L 304 302 L 45 302 Z M 45 75.476562 " clip-rule="nonzero"/></clipPath></defs><g clip-path="url(#f2eefc59ae)"><path fill="#880d1e" d="M 323.535156 305.175781 C 323.542969 307.660156 323.941406 310.152344 324.730469 312.539062 C 325.84375 315.902344 327.746094 319.074219 330.433594 321.761719 C 333.125 324.453125 336.296875 326.351562 339.664062 327.464844 C 342.058594 328.257812 344.546875 328.652344 347.039062 328.660156 C 347.03125 326.167969 346.632812 323.679688 345.84375 321.292969 C 344.730469 317.925781 342.828125 314.757812 340.136719 312.066406 C 337.445312 309.378906 334.277344 307.480469 330.90625 306.367188 C 328.515625 305.574219 326.027344 305.175781 323.535156 305.175781 Z M 254.417969 295.917969 C 254.382812 292.371094 254.925781 288.820312 256.054688 285.421875 C 257.597656 280.761719 260.214844 276.386719 263.914062 272.6875 C 267.613281 268.992188 272 266.371094 276.664062 264.828125 C 281.484375 263.234375 286.613281 262.804688 291.609375 263.539062 L 294.882812 264.019531 L 295.363281 267.296875 C 296.097656 272.285156 295.667969 277.410156 294.074219 282.230469 C 292.53125 286.890625 289.910156 291.269531 286.210938 294.964844 C 285.886719 295.292969 285.554688 295.605469 285.21875 295.917969 L 357.984375 295.917969 L 357.984375 304.816406 L 345.433594 304.816406 C 345.777344 305.128906 346.105469 305.449219 346.433594 305.773438 C 350.132812 309.472656 352.753906 313.847656 354.296875 318.511719 C 355.894531 323.332031 356.324219 328.460938 355.589844 333.445312 L 355.105469 336.71875 L 351.832031 337.199219 C 346.835938 337.933594 341.707031 337.507812 336.878906 335.914062 C 332.222656 334.375 327.839844 331.753906 324.140625 328.054688 C 320.4375 324.359375 317.820312 319.980469 316.277344 315.320312 C 315.152344 311.917969 314.605469 308.367188 314.644531 304.816406 L 42.953125 304.816406 L 42.953125 295.917969 Z M 264.507812 288.207031 C 263.714844 290.59375 263.320312 293.078125 263.3125 295.570312 C 265.804688 295.566406 268.296875 295.164062 270.683594 294.375 C 274.050781 293.265625 277.222656 291.363281 279.914062 288.671875 C 282.605469 285.988281 284.507812 282.816406 285.621094 279.449219 C 286.410156 277.058594 286.808594 274.574219 286.816406 272.085938 C 284.324219 272.089844 281.832031 272.488281 279.445312 273.277344 C 276.074219 274.386719 272.902344 276.292969 270.210938 278.980469 C 267.519531 281.667969 265.621094 284.835938 264.507812 288.207031 " fill-opacity="1" fill-rule="nonzero"/></g><g clip-path="url(#064f427e16)"><path fill="#880d1e" d="M 249.550781 157.414062 L 286.179688 143.46875 L 226.597656 94.46875 L 226.550781 123.898438 L 226.546875 127.933594 L 222.542969 128.34375 C 219.238281 128.679688 216.328125 129.378906 213.796875 130.382812 C 208.539062 132.457031 204.972656 135.890625 202.871094 140.105469 C 200.679688 144.507812 199.984375 149.828125 200.558594 155.453125 C 200.96875 159.441406 202.027344 163.601562 203.652344 167.710938 C 209.515625 182.527344 211.125 195.203125 209.636719 205.859375 C 207.847656 218.660156 201.644531 228.449219 192.929688 235.46875 C 184.40625 242.328125 173.515625 246.464844 162.085938 248.117188 C 147.828125 250.175781 132.628906 248.375 120.164062 243.171875 L 120.339844 242.738281 C 113.78125 247.957031 106.863281 253.035156 99.789062 257.796875 C 89.925781 264.445312 79.71875 270.503906 69.742188 275.496094 C 71.015625 275.75 72.296875 275.964844 73.585938 276.132812 C 78.699219 276.800781 83.964844 276.746094 89.121094 275.472656 C 95.035156 274.015625 103.125 270.902344 111.496094 267.160156 C 121.105469 262.867188 131.058594 257.75 138.550781 253.339844 L 140.1875 252.375 L 142.019531 252.882812 C 162.25 258.519531 193.355469 261.355469 219.394531 255.03125 C 237.875 250.539062 253.683594 241.410156 260.664062 225.308594 C 262.0625 222.078125 263.144531 218.597656 263.855469 214.886719 C 264.558594 211.265625 264.898438 207.476562 264.84375 203.53125 C 264.765625 197.957031 264.050781 192.019531 263.351562 186.21875 C 262.625 180.140625 261.910156 174.210938 261.910156 168.527344 C 261.910156 166.503906 262.203125 164.234375 262.753906 161.96875 L 252.738281 165.785156 Z M 212.8125 265.484375 L 237.148438 295.984375 L 230.140625 301.554688 L 202.433594 266.828125 C 196.214844 267.410156 189.925781 267.621094 183.730469 267.523438 L 180.746094 274.585938 L 191.492188 296.914062 L 183.433594 300.769531 L 171.816406 276.632812 L 170.949219 274.824219 L 171.734375 272.972656 L 174.199219 267.128906 C 162.152344 266.332031 150.8125 264.449219 141.472656 261.992188 C 133.984375 266.300781 124.429688 271.167969 115.140625 275.324219 C 106.308594 279.269531 97.691406 282.570312 91.257812 284.15625 C 78.25 287.363281 55.707031 283.519531 45.328125 275.796875 C 63.761719 269.4375 78.523438 261.328125 94.78125 250.371094 C 108.808594 240.917969 122.183594 230.242188 133.171875 219.820312 C 137.273438 215.925781 141.199219 212.117188 145.070312 208.355469 C 161.3125 192.578125 176.621094 177.703125 194.007812 167.367188 C 192.832031 163.707031 192.03125 160.007812 191.65625 156.359375 C 190.917969 149.085938 191.878906 142.074219 194.84375 136.113281 C 197.910156 129.964844 203.027344 125 210.5 122.046875 C 212.667969 121.191406 215.039062 120.511719 217.621094 120.023438 L 217.671875 85.023438 L 217.6875 75.578125 L 224.976562 81.574219 L 297.808594 141.464844 L 303.757812 146.359375 L 296.566406 149.097656 L 274.191406 157.617188 C 273.34375 158.832031 272.613281 160.375 272.054688 162.023438 C 271.296875 164.242188 270.878906 166.570312 270.878906 168.527344 C 270.878906 173.746094 271.554688 179.390625 272.253906 185.164062 C 272.964844 191.070312 273.691406 197.113281 273.78125 203.425781 C 273.84375 208.035156 273.453125 212.421875 272.652344 216.5625 C 271.824219 220.867188 270.542969 224.96875 268.859375 228.847656 C 260.578125 247.945312 242.496094 258.613281 221.496094 263.714844 C 218.652344 264.402344 215.75 264.992188 212.8125 265.484375 Z M 127.921875 236.515625 C 138.046875 239.855469 149.738281 240.863281 160.824219 239.257812 C 170.742188 237.824219 180.113281 234.304688 187.320312 228.5 C 194.335938 222.851562 199.332031 214.960938 200.773438 204.636719 C 201.890625 196.621094 200.902344 187.09375 197.128906 175.949219 C 181.175781 185.75 166.664062 199.839844 151.308594 214.761719 C 147.363281 218.597656 143.355469 222.488281 139.339844 226.296875 C 135.753906 229.699219 131.925781 233.121094 127.921875 236.515625 " fill-opacity="1" fill-rule="nonzero"/></g></svg>