<svg width="104" height="98" viewBox="0 0 104 98" fill="none" xmlns="http://www.w3.org/2000/svg">
<g clip-path="url(#clip0_330_1769)">
<path d="M78.5717 33.3928C78.5717 50.3236 66.0744 52.9531 66.0744 68.7322C66.0744 76.8781 58.2686 77.5644 52.3274 77.5644C47.1961 77.5644 35.866 75.5161 35.866 68.7269C35.866 52.9557 23.5837 50.3263 23.5837 33.3928C23.5837 17.5348 36.7933 4.67963 51.2852 4.67963C65.782 4.67963 78.5717 17.5348 78.5717 33.3928Z" fill="url(#paint0_radial_330_1769)" stroke="white" stroke-width="1.85"/>
<path d="M61.4978 89.7665C61.4978 91.9437 55.914 96.34 51.0826 96.34C46.2511 96.34 40.6674 91.9437 40.6674 89.7665C40.6674 87.5893 46.2486 88.4518 51.0826 88.4518C55.914 88.4518 61.4978 87.5893 61.4978 89.7665Z" fill="url(#paint1_radial_330_1769)" stroke="white" stroke-width="1.85"/>
<path d="M62.837 31.3751C62.6051 31.1307 62.3296 30.9368 62.0264 30.8045C61.7232 30.6722 61.3981 30.6041 61.0699 30.6041C60.7416 30.6041 60.4166 30.6722 60.1133 30.8045C59.8101 30.9368 59.5347 31.1307 59.3028 31.3751L51.0721 40.0337L42.8414 31.3751C42.6093 31.1309 42.3338 30.9373 42.0306 30.8052C41.7274 30.6731 41.4025 30.6051 41.0743 30.6051C40.7461 30.6051 40.4211 30.6731 40.1179 30.8052C39.8147 30.9373 39.5392 31.1309 39.3072 31.3751C39.0751 31.6192 38.891 31.909 38.7654 32.228C38.6398 32.547 38.5752 32.8888 38.5752 33.2341C38.5752 33.5793 38.6398 33.9212 38.7654 34.2402C38.891 34.5591 39.0751 34.8489 39.3072 35.0931L48.5726 44.8403V72.6753C48.5726 73.3727 48.836 74.0415 49.3047 74.5346C49.7734 75.0277 50.4092 75.3047 51.0721 75.3047C51.735 75.3047 52.3707 75.0277 52.8394 74.5346C53.3082 74.0415 53.5715 73.3727 53.5715 72.6753V44.8403L62.837 35.0931C63.0693 34.8491 63.2536 34.5593 63.3793 34.2403C63.5051 33.9213 63.5698 33.5794 63.5698 33.2341C63.5698 32.8887 63.5051 32.5468 63.3793 32.2278C63.2536 31.9088 63.0693 31.6191 62.837 31.3751Z" fill="white"/>
<path d="M68.1499 82.9347C68.1499 83.8825 67.6302 84.7915 66.705 85.4618C65.7798 86.132 64.525 86.5085 63.2166 86.5085H43.4833C42.1749 86.5085 40.92 86.132 39.9949 85.4618C39.0697 84.7915 38.5499 83.8825 38.5499 82.9347V72.2131H68.1499V82.9347Z" fill="#FE7726"/>
<path d="M36.0683 88.4501C35.4424 88.4477 34.8402 88.1983 34.3806 87.7513C33.9211 87.3042 33.6377 86.6921 33.5865 86.0358C33.5353 85.3796 33.72 84.727 34.1041 84.2071C34.4882 83.6872 35.0438 83.3379 35.6609 83.2281L65.6543 77.9693C65.9782 77.9107 66.3098 77.9202 66.6302 77.9974C66.9505 78.0745 67.2531 78.2177 67.5204 78.4188C67.7877 78.6198 68.0145 78.8746 68.1876 79.1685C68.3606 79.4623 68.4766 79.7894 68.5287 80.1307C68.5827 80.4712 68.5724 80.8195 68.4984 81.1558C68.4243 81.4921 68.288 81.8097 68.0972 82.0906C67.9064 82.3714 67.6648 82.6099 67.3863 82.7925C67.1078 82.975 66.7979 83.098 66.4741 83.1545L36.4807 88.4133C36.3446 88.4385 36.2066 88.4508 36.0683 88.4501ZM36.0683 77.9325C35.4424 77.93 34.8402 77.6806 34.3806 77.2336C33.9211 76.7866 33.6377 76.1744 33.5865 75.5182C33.5353 74.8619 33.72 74.2094 34.1041 73.6895C34.4882 73.1696 35.0438 72.8202 35.6609 72.7105L65.6543 67.4516C65.9781 67.3934 66.3097 67.4032 66.6299 67.4805C66.9501 67.5578 67.2525 67.701 67.5198 67.902C67.787 68.103 68.0138 68.3576 68.187 68.6513C68.3601 68.945 68.4763 69.2719 68.5287 69.613C68.5827 69.9535 68.5724 70.3018 68.4984 70.6381C68.4243 70.9744 68.288 71.2921 68.0972 71.5729C67.9064 71.8537 67.6648 72.0923 67.3863 72.2748C67.1078 72.4574 66.7979 72.5804 66.4741 72.6368L36.4807 77.8957C36.3446 77.9209 36.2066 77.9332 36.0683 77.9325Z" fill="url(#paint2_radial_330_1769)" stroke="white" stroke-width="1.85"/>
</g>
<defs>
<radialGradient id="paint0_radial_330_1769" cx="0" cy="0" r="1" gradientUnits="userSpaceOnUse" gradientTransform="translate(51.1478 41.2687) rotate(149.205) scale(32.0076 37.6336)">
<stop stop-color="#FF00FE"/>
<stop offset="1" stop-color="#FE8C00"/>
</radialGradient>
<radialGradient id="paint1_radial_330_1769" cx="0" cy="0" r="1" gradientUnits="userSpaceOnUse" gradientTransform="translate(51.1091 92.3279) rotate(170.134) scale(10.5719 4.77126)">
<stop stop-color="#FF00FE"/>
<stop offset="1" stop-color="#FE8C00"/>
</radialGradient>
<radialGradient id="paint2_radial_330_1769" cx="0" cy="0" r="1" gradientUnits="userSpaceOnUse" gradientTransform="translate(51.115 77.9745) rotate(164.871) scale(18.1209 12.2063)">
<stop stop-color="#FF00FE"/>
<stop offset="1" stop-color="#FE8C00"/>
</radialGradient>
<clipPath id="clip0_330_1769">
<rect width="92.5" height="96.4943" fill="white" transform="translate(5.25 0.735779)"/>
</clipPath>
</defs>
</svg>
