<svg width="112" height="76" viewBox="0 0 112 76" fill="none" xmlns="http://www.w3.org/2000/svg">
<path d="M75.5848 1.11549H60.955C59.5925 1.11549 58.2811 1.68546 57.2762 2.7114L40.5345 19.8105C40.5175 19.8295 40.5005 19.8675 40.4834 19.8865C37.6562 22.8503 37.7073 27.581 40.1258 30.5259C42.2887 33.1667 46.8361 33.8697 49.6803 31.0388C49.6973 31.0198 49.7314 31.0198 49.7484 31.0008L63.3564 17.0936C64.4634 15.9727 66.2006 16.0487 67.2055 17.2836C68.2273 18.5185 68.1422 20.4374 67.0351 21.5774L62.59 26.1181L87.3875 48.5749C87.8814 49.0309 88.3242 49.5248 88.733 50.0378V13.2748L79.4339 2.90139C78.4291 1.76145 77.0325 1.11549 75.5848 1.11549ZM94.2 13.3128V55.8515C94.2 59.2143 96.6355 61.9311 99.65 61.9311H110.55V13.3128H94.2ZM102.375 55.8515C100.876 55.8515 99.65 54.4836 99.65 52.8116C99.65 51.1397 100.876 49.7718 102.375 49.7718C103.874 49.7718 105.1 51.1397 105.1 52.8116C105.1 54.4836 103.874 55.8515 102.375 55.8515ZM1.55 61.9121H12.45C15.4645 61.9121 17.9 59.1953 17.9 55.8325V13.3128H1.55V61.9121ZM9.72499 49.7718C11.2237 49.7718 12.45 51.1397 12.45 52.8116C12.45 54.4836 11.2237 55.8515 9.72499 55.8515C8.22624 55.8515 7 54.4836 7 52.8116C7 51.1207 8.22624 49.7718 9.72499 49.7718ZM83.9642 53.3056L58.5366 30.2789L53.4272 35.5036C48.3689 40.6523 40.6197 40.1583 36.1064 34.6676C31.525 29.082 31.8827 20.4374 36.8558 15.3457L50.7873 1.11549H36.5152C35.0675 1.11549 33.688 1.76145 32.6661 2.90139L23.35 13.2748V55.8135H26.4667L41.88 71.3736C46.5466 75.6104 53.4101 74.8124 57.2081 69.6067L57.2422 69.5687L60.2908 72.5136C62.9987 74.9834 67.0011 74.5085 69.1981 71.4876L74.5459 64.154L75.4656 64.99C77.7989 67.0989 81.2392 66.7189 83.1297 64.097L84.7477 61.8741C86.6552 59.2523 86.2975 55.4335 83.9642 53.3056Z" fill="url(#paint0_radial_330_1794)" stroke="white" stroke-width="1.87106"/>
<defs>
<radialGradient id="paint0_radial_330_1794" cx="0" cy="0" r="1" gradientUnits="userSpaceOnUse" gradientTransform="translate(56.189 37.7536) rotate(163.245) scale(56.9181 42.0068)">
<stop stop-color="#FF00FE"/>
<stop offset="1" stop-color="#FE8C00"/>
</radialGradient>
</defs>
</svg>
