<svg width="104" height="100" viewBox="0 0 104 100" fill="none" xmlns="http://www.w3.org/2000/svg">
<path d="M59.771 50.0486C58.9977 53.451 61.1628 57.008 64.7199 57.7813C68.2769 58.5545 71.8339 56.3894 72.6072 52.987L82.0411 12.4678C82.8143 9.06546 80.6492 5.50843 77.0921 4.73516C73.5351 3.9619 69.9781 6.12704 69.2048 9.52942L59.771 50.0486Z" fill="url(#paint0_radial_330_1777)" stroke="white" stroke-width="1.85"/>
<path d="M71.9899 54.0664C71.9899 54.0664 58.535 40.7663 34.7184 47.4163C34.7184 47.4163 20.6449 49.8908 21.4182 57.0049C21.4182 57.0049 20.9542 74.6354 26.9857 85.1518C34.4403 97.913 61.3382 100.091 74.736 85.1518C77.7373 81.8052 77.4529 78.7978 79.0662 73.5048C79.0662 67.9548 79.0662 55.0049 71.9899 54.0664Z" fill="url(#paint1_radial_330_1777)" stroke="white" stroke-width="1.85"/>
<path d="M48.0127 52.3661C48.6313 55.9231 52.1884 58.0883 55.7454 57.4697C59.3024 56.8511 61.7769 53.4487 61.1582 49.8916L53.4256 9.06315C52.807 5.50612 49.2499 3.34097 45.6929 3.95959C42.1359 4.5782 39.6614 7.98058 40.4347 11.5376L48.0127 52.3661Z" fill="url(#paint2_radial_330_1777)"/>
<path d="M48.0127 52.3661C48.6313 55.9231 52.1884 58.0883 55.7454 57.4697C59.3024 56.8511 61.7769 53.4487 61.1582 49.8916L53.4256 9.06315C52.807 5.50612 49.2499 3.34097 45.6929 3.95959C42.1359 4.5782 39.6614 7.98058 40.4347 11.5376L48.0127 52.3661" stroke="white" stroke-width="1.85"/>
<path d="M20.6495 50.3582C20.1856 46.8012 22.8147 43.5535 26.5263 43.0895H26.681C30.238 42.7802 33.6404 45.2547 33.9497 48.9664L35.0323 59.0188C35.4962 62.5758 32.8671 65.8236 29.1554 66.2875H29.0008C25.2891 66.5968 22.0414 64.1224 21.7321 60.4107L20.6495 50.3582Z" fill="url(#paint3_radial_330_1777)"/>
<path d="M20.6495 50.3582C20.1856 46.8012 22.8147 43.5535 26.5263 43.0895H26.681C30.238 42.7802 33.6404 45.2547 33.9497 48.9664L35.0323 59.0188C35.4962 62.5758 32.8671 65.8236 29.1554 66.2875H29.0008C25.2891 66.5968 22.0414 64.1224 21.7321 60.4107L20.6495 50.3582" stroke="white" stroke-width="1.85"/>
<path d="M33.1632 43.0895C32.6992 39.5325 35.3283 36.2847 39.04 35.8208H39.1947C42.9063 35.5115 46.1541 37.9859 46.4634 41.6976L47.5459 51.7501C48.0099 55.3071 45.3808 58.5548 41.6691 59.0188H41.5145C37.8028 59.3281 34.5551 56.8536 34.2458 53.142L33.1632 43.0895Z" fill="url(#paint4_radial_330_1777)"/>
<path d="M33.1632 43.0895C32.6992 39.5325 35.3283 36.2847 39.04 35.8208H39.1947C42.9063 35.5115 46.1541 37.9859 46.4634 41.6976L47.5459 51.7501C48.0099 55.3071 45.3808 58.5548 41.6691 59.0188H41.5145C37.8028 59.3281 34.5551 56.8536 34.2458 53.142L33.1632 43.0895" stroke="white" stroke-width="1.85"/>
<path d="M26.9514 64.1245C30.6631 63.6606 33.1376 60.5675 32.8283 56.8558L31.7457 46.8033C31.591 45.8754 31.1271 44.7929 30.6631 43.8649C32.9829 44.9475 33.7562 46.8033 34.0655 48.9685L35.1481 59.021C35.612 62.578 32.9829 65.8257 29.4259 66.135C26.7968 66.4443 24.3223 65.0525 23.0851 63.042C24.013 63.8152 25.4049 64.2792 26.9514 64.1245Z" fill="white"/>
<path d="M39.3032 56.8552C43.0149 56.3912 45.644 53.2982 45.18 49.7411L44.0975 39.6887C43.9428 38.7607 43.4788 37.5235 43.0149 36.7502C45.18 37.9875 46.1079 39.8433 46.4172 42.0085L47.4998 52.0609C47.9638 55.618 45.3347 58.711 41.623 59.175H41.4683C38.8392 59.4843 36.3648 58.0924 35.1276 56.0819C36.3648 56.7005 37.7567 57.0098 39.3032 56.8552Z" fill="white"/>
<path d="M66.0872 63.8137C58.6638 60.2567 41.8066 66.4428 45.209 81.9081C45.209 65.8242 59.7464 63.0404 66.0872 63.8137Z" fill="white"/>
<path d="M63.2844 47.8844C57.8715 44.6366 56.9436 49.7402 47.819 50.0495C43.798 50.2042 42.0969 58.4008 48.1283 61.3392C56.4796 65.5148 57.0982 59.638 59.2634 61.9578C61.4285 64.4322 63.439 64.8962 65.2949 67.68C66.6867 69.6905 77.0485 66.5974 78.1311 62.4218C80.1416 54.2251 71.6356 52.9879 63.2844 47.8844Z" fill="white"/>
<path d="M63.9428 49.2754C58.3753 46.0277 57.2927 51.1312 47.8589 51.4406C43.6832 51.5952 41.8274 60.1011 48.1682 63.1942C56.8288 67.5245 57.602 61.3384 59.6125 63.8128C61.9323 66.2873 63.9428 66.9059 65.9533 69.8443C67.3452 72.0094 63.6335 80.0514 63.6335 80.0514C63.6335 80.0514 74.3046 87.6294 76.4698 83.2991C80.4907 75.2572 79.4082 69.071 79.2535 64.4314C78.9442 53.4511 72.7581 54.5336 63.9428 49.2754Z" fill="url(#paint5_radial_330_1777)"/>
<path d="M63.9428 49.2754C58.3753 46.0277 57.2927 51.1312 47.8589 51.4406C43.6832 51.5952 41.8274 60.1011 48.1682 63.1942C56.8288 67.5245 57.602 61.3384 59.6125 63.8128C61.9323 66.2873 63.9428 66.9059 65.9533 69.8443C67.3452 72.0094 63.6335 80.0514 63.6335 80.0514C63.6335 80.0514 74.3046 87.6294 76.4698 83.2991C80.4907 75.2572 79.4082 69.071 79.2535 64.4314C78.9442 53.4511 72.7581 54.5336 63.9428 49.2754" stroke="white" stroke-width="1.85"/>
<defs>
<radialGradient id="paint0_radial_330_1777" cx="0" cy="0" r="1" gradientUnits="userSpaceOnUse" gradientTransform="translate(70.9348 31.3656) rotate(133.266) scale(16.4751 21.983)">
<stop stop-color="#FF00FE"/>
<stop offset="1" stop-color="#FE8C00"/>
</radialGradient>
<radialGradient id="paint1_radial_330_1777" cx="0" cy="0" r="1" gradientUnits="userSpaceOnUse" gradientTransform="translate(50.3004 70.6555) rotate(158.704) scale(30.9538 28.0031)">
<stop stop-color="#FF00FE"/>
<stop offset="1" stop-color="#FE8C00"/>
</radialGradient>
<radialGradient id="paint2_radial_330_1777" cx="0" cy="0" r="1" gradientUnits="userSpaceOnUse" gradientTransform="translate(50.7997 30.8228) rotate(130.949) scale(15.9912 21.1633)">
<stop stop-color="#FF00FE"/>
<stop offset="1" stop-color="#FE8C00"/>
</radialGradient>
<radialGradient id="paint3_radial_330_1777" cx="0" cy="0" r="1" gradientUnits="userSpaceOnUse" gradientTransform="translate(27.8594 54.7353) rotate(144.188) scale(8.93366 11.3333)">
<stop stop-color="#FF00FE"/>
<stop offset="1" stop-color="#FE8C00"/>
</radialGradient>
<radialGradient id="paint4_radial_330_1777" cx="0" cy="0" r="1" gradientUnits="userSpaceOnUse" gradientTransform="translate(40.373 47.4666) rotate(144.188) scale(8.93365 11.3333)">
<stop stop-color="#FF00FE"/>
<stop offset="1" stop-color="#FE8C00"/>
</radialGradient>
<radialGradient id="paint5_radial_330_1777" cx="0" cy="0" r="1" gradientUnits="userSpaceOnUse" gradientTransform="translate(61.8201 66.4904) rotate(155.196) scale(19.528 19.8817)">
<stop stop-color="#FF00FE"/>
<stop offset="1" stop-color="#FE8C00"/>
</radialGradient>
</defs>
</svg>
